<?xml version="1.0" encoding="utf-8" ?><svg xmlns="http://www.w3.org/2000/svg" xmlns:xlink="http://www.w3.org/1999/xlink" width="2048" height="2048" viewBox="0 0 2048 2048"><path fill="#FEFEFE" transform="scale(2 2)" d="M497.826 143.221C509.63 142.682 521.456 142.816 533.245 143.621C618.426 149.658 697.809 188.977 754.231 253.078C803.326 309.24 830.606 384.405 825.504 459.108C822.236 501.717 811.258 543.379 793.105 582.066C768.462 635.685 736.646 678.731 699.342 723.71C645.738 787.277 587.126 846.446 524.069 900.65L512.704 910.062C505.221 904.357 496.364 896.164 489.316 889.783C442.842 848.183 399.11 803.617 358.396 756.365C285.777 673.24 211.134 575.218 205.611 460.362C201.291 381.559 229.063 304.364 282.596 246.375C338.894 184.465 413.902 147.308 497.826 143.221ZM522.778 671.553C645.167 667.725 741.257 565.369 737.357 442.982C733.457 320.596 631.044 224.566 508.66 228.538C386.378 232.508 290.445 334.817 294.342 457.101C298.24 579.385 400.492 675.378 522.778 671.553Z"/><path fill="#FEFEFE" transform="scale(2 2)" d="M396.855 401.161C407.547 400.439 423.298 400.912 434.274 400.913L502.171 400.932L581.061 400.903C594.836 400.899 608.63 400.79 622.393 401.038C627.257 401.126 630.556 402.102 633.394 406.272C635.458 409.305 635.91 411.573 635.576 415.101C651.989 415.794 663.719 419.052 676.299 430.161C696.915 448.365 698.399 477.716 679.563 497.81C667.116 511.088 653.977 516.438 635.875 517.18C629.751 517.447 623.618 516.969 617.609 515.756C610.107 532.507 594.875 550.249 577.854 557.862C571.638 560.579 565.043 562.326 558.297 563.042C548.679 564.126 524.304 563.553 513.621 563.482C500.426 563.394 478.057 564.241 465.906 563.082C460.285 562.596 454.76 561.317 449.497 559.283C403.301 541.168 386.119 473.241 388.086 428.077C388.54 417.653 385.195 406.239 396.855 401.161ZM624.947 497.237C638.281 498.223 644.859 498.254 656.962 492.031C688.164 471.167 672.229 436.337 636.274 434.989C635.721 451.305 631.495 482.367 624.947 497.237Z"/><path fill="#FEFEFE" transform="scale(2 2)" d="M382.444 571.732C389.248 571.004 405.051 571.395 412.449 571.391L469.638 571.399L647.918 571.455C645.791 577.329 643.375 579.194 638.7 583.026C622.611 594.639 613.55 592.688 594.511 592.701L550.111 592.701L464.164 592.704C448.999 592.702 433.978 592.72 418.669 592.596C405.935 592.493 395.215 587.086 386.137 578.218C384.627 576.742 382.342 573.926 382.444 571.732Z"/><path fill="#FEFEFE" transform="scale(2 2)" d="M481.831 293.473C482.9 293.843 484.466 294.429 485.298 295.135C500.729 308.412 487.905 329.435 481.819 343.958C478.93 350.851 476.475 361.585 477.907 369.166C478.589 372.772 481.364 377.056 481.938 381.114L481.342 381.704L479.676 381.291C450.27 366.913 464.98 335.796 476.47 315.18C480.18 308.525 482.708 301.178 481.831 293.473Z"/><path fill="#FEFEFE" transform="scale(2 2)" d="M560.452 293.759C563.667 294.98 564.92 296.379 566.898 299.272C582.729 322.42 552.815 343.84 556.779 368.409C557.295 371.608 560.971 379.347 560.535 381.594L558.747 381.482C537.216 370.586 539.363 349.388 548.325 330.579C554.842 316.903 560.981 309.512 560.452 293.759Z"/><path fill="#FEFEFE" transform="scale(2 2)" d="M521.769 294.018C524.062 294.659 525.571 295.349 527.27 297.123C540.048 310.783 528.38 330.081 522.842 344.213C519.954 351.584 517.892 359.762 518.394 367.714C518.668 372.055 522.351 377.019 522.501 381.304L521.835 381.897L519.693 381.491C510.825 376.554 505.14 370.448 503.873 359.786C500.926 334.981 524.358 318.536 521.769 294.018Z"/></svg>